<?xml version="1.0" encoding="UTF-8"?>
<svg version="1.1" viewBox="0 0 500 500" xmlns="http://www.w3.org/2000/svg">
 <defs>
  <filter id="e" color-interpolation-filters="sRGB">
   <feGaussianBlur stdDeviation="11.961225"/>
  </filter>
  <linearGradient id="a" x1="331.43" x2="340" y1="412.36" y2="653.79" gradientUnits="userSpaceOnUse">
   <stop stop-color="#800080" offset="0"/>
   <stop stop-color="#b400b4" offset="1"/>
  </linearGradient>
  <linearGradient id="f" x1="302.86" x2="262.86" y1="365.22" y2="598.08" gradientUnits="userSpaceOnUse">
   <stop stop-color="#fff" offset="0"/>
   <stop stop-color="#fff" stop-opacity="0" offset="1"/>
  </linearGradient>
  <linearGradient id="g" x1="185.71" x2="197.14" y1="723.79" y2="669.51" gradientUnits="userSpaceOnUse">
   <stop stop-color="#f0c" offset="0"/>
   <stop stop-color="#f0c" stop-opacity="0" offset="1"/>
  </linearGradient>
 </defs>
 <g transform="translate(0 -552.36)">
  <g transform="matrix(.97581 0 0 .97581 -90.339 255.33)">
   <path d="m242.82 360.99c-3.3911 0.13004-6.4948 0.8526-9.383 2.3611-2.5921 1.3539-4.7327 4.4351-5.0901 7.2672-0.35745 2.8321 0.32589 5.2004 1.2572 7.5432 1.8626 4.6856 5.1548 9.627 9.4443 15.546 8.579 11.839 21.259 27.173 33.883 45.014 25.248 35.681 49.695 80.866 41.212 124.59-8.4837 43.719-51.165 89.983-90.457 125.81-19.646 17.914-38.33 33.265-51.361 44.953-6.5156 5.8436-11.6 10.666-14.964 14.933-1.6819 2.1336-3.0277 4.0602-3.7409 6.7766-0.35662 1.3582-0.53475 3.065 0.0306 4.8755 0.56549 1.8104 1.9338 3.4157 3.3423 4.3235 3.7834 2.4386 7.9079 2.6179 12.572 2.2998 4.6642-0.31814 10.029-1.3776 16.19-3.0357 12.323-3.3162 27.819-9.0498 45.566-16.558 35.494-15.017 79.933-37.115 124.06-60.898 44.131-23.782 87.906-49.257 122.04-70.986 17.067-10.864 31.734-20.773 42.867-29.161 11.134-8.388 18.585-14.574 22.292-20.882 2.299-3.9121 1.9865-8.4942 0.61328-12.511-1.3732-4.0165-3.7939-7.9743-7.0219-12.265-6.456-8.582-16.313-18.39-28.701-29.161-24.776-21.542-59.631-46.764-96.283-70.403s-75.05-45.647-106.89-60.622c-15.922-7.4871-30.188-13.224-42.009-16.528-5.9106-1.652-11.2-2.8971-15.976-3.2196-1.1938-0.0806-2.3653-0.10467-3.4957-0.0613z" color="#000000" fill="#405" filter="url(#e)" opacity=".6"/>
   <path d="m238.79 331.1c-3.4559 0.13252-6.6191 0.86888-9.5625 2.4062-2.6417 1.3797-4.8232 4.5199-5.1875 7.4062-0.36429 2.8863 0.33213 5.2999 1.2812 7.6875 1.8982 4.7753 5.2535 9.8111 9.625 15.844 8.7431 12.065 21.666 27.693 34.531 45.875 25.731 36.364 50.646 82.413 42 126.97-8.646 44.555-52.144 91.704-92.188 128.22-20.022 18.257-39.063 33.902-52.344 45.812-6.6402 5.9554-11.822 10.87-15.25 15.219-1.714 2.1744-3.0857 4.1378-3.8125 6.9062-0.36342 1.3842-0.54499 3.1237 0.0312 4.9688 0.57629 1.8451 1.9708 3.481 3.4062 4.4062 3.8558 2.4852 8.0591 2.668 12.812 2.3438 4.7534-0.32422 10.221-1.404 16.5-3.0938 12.558-3.3796 28.351-9.2229 46.438-16.875 36.173-15.304 81.462-37.825 126.44-62.062 44.975-24.237 89.588-50.2 124.38-72.344 17.394-11.072 32.341-21.17 43.688-29.719 11.347-8.5484 18.941-14.852 22.719-21.281 2.3429-3.987 2.0245-8.6567 0.625-12.75s-3.8665-8.1269-7.1562-12.5c-6.5795-8.7462-16.625-18.742-29.25-29.719-25.25-21.954-60.772-47.659-98.125-71.75s-76.485-46.52-108.94-61.781c-16.226-7.6304-30.765-13.477-42.812-16.844-6.0236-1.6836-11.415-2.9525-16.281-3.2812-1.2166-0.0822-2.4105-0.10667-3.5625-0.0625z" color="#000000" stroke="#000" stroke-linecap="round" stroke-linejoin="round" stroke-width="12"/>
   <path d="m240.22 328.53c-3.4559 0.13252-6.6191 0.86888-9.5625 2.4062-2.6417 1.3797-4.8232 4.5199-5.1875 7.4062-0.36429 2.8863 0.33213 5.2999 1.2812 7.6875 1.8982 4.7753 5.2535 9.8111 9.625 15.844 8.7431 12.065 21.666 27.693 34.531 45.875 25.731 36.364 50.646 82.413 42 126.97-8.646 44.555-52.144 91.704-92.188 128.22-20.022 18.257-39.063 33.902-52.344 45.812-6.6402 5.9554-11.822 10.87-15.25 15.219-1.714 2.1744-3.0857 4.1378-3.8125 6.9062-0.36342 1.3842-0.54499 3.1237 0.0312 4.9688 0.57629 1.8451 1.9708 3.481 3.4062 4.4062 3.8558 2.4852 8.0591 2.668 12.812 2.3438 4.7534-0.32422 10.221-1.404 16.5-3.0938 12.558-3.3796 28.351-9.2229 46.438-16.875 36.173-15.304 81.462-37.825 126.44-62.062 44.975-24.237 89.588-50.2 124.38-72.344 17.394-11.072 32.341-21.17 43.688-29.719 11.347-8.5484 18.941-14.852 22.719-21.281 2.3429-3.987 2.0245-8.6567 0.625-12.75s-3.8665-8.1269-7.1562-12.5c-6.5795-8.7462-16.625-18.742-29.25-29.719-25.25-21.954-60.772-47.659-98.125-71.75s-76.485-46.52-108.94-61.781c-16.226-7.6304-30.765-13.477-42.812-16.844-6.0236-1.6836-11.415-2.9525-16.281-3.2812-1.2166-0.0822-2.4105-0.10667-3.5625-0.0625z" color="#000000" fill="url(#a)"/>
   <path d="m240.22 328.53c-3.4559 0.13252-6.6191 0.86888-9.5625 2.4062-2.6417 1.3797-4.8232 4.5199-5.1875 7.4062-0.36429 2.8863 0.33213 5.2999 1.2812 7.6875 1.8982 4.7753 5.2535 9.8111 9.625 15.844 8.7431 12.065 21.666 27.693 34.531 45.875 25.731 36.364 50.646 82.413 42 126.97-8.646 44.555-52.144 91.704-92.188 128.22-20.022 18.257-39.063 33.902-52.344 45.812-6.6402 5.9554-11.822 10.87-15.25 15.219-1.714 2.1744-3.0857 4.1378-3.8125 6.9062-0.36342 1.3842-0.54499 3.1237 0.0312 4.9688 0.57629 1.8451 1.9708 3.481 3.4062 4.4062 3.8558 2.4852 8.0591 2.668 12.812 2.3438 4.7534-0.32422 10.221-1.404 16.5-3.0938 12.558-3.3796 28.351-9.2229 46.438-16.875 36.173-15.304 81.462-37.825 126.44-62.062 44.975-24.237 89.588-50.2 124.38-72.344 17.394-11.072 32.341-21.17 43.688-29.719 11.347-8.5484 18.941-14.852 22.719-21.281 2.3429-3.987 2.0245-8.6567 0.625-12.75s-3.8665-8.1269-7.1562-12.5c-6.5795-8.7462-16.625-18.742-29.25-29.719-25.25-21.954-60.772-47.659-98.125-71.75s-76.485-46.52-108.94-61.781c-16.226-7.6304-30.765-13.477-42.812-16.844-6.0236-1.6836-11.415-2.9525-16.281-3.2812-1.2166-0.0822-2.4105-0.10667-3.5625-0.0625z" color="#000000" fill="url(#a)"/>
   <path d="m240.6 332.76c-3.413 0.13088-6.5368 0.85808-9.4436 2.3764-2.6088 1.3626-4.7632 4.4637-5.123 7.3142-0.35977 2.8504 0.32799 5.234 1.2653 7.5919 1.8746 4.7159 5.1882 9.6891 9.5054 15.647 8.6344 11.915 21.396 27.349 34.102 45.305 25.411 35.912 50.016 81.389 41.478 125.39-3.9057 20.127-15.032 40.787-29.72 60.735 28.376-11.719 58.65-22.608 90.332-32.281 60.612-18.507 118.93-30.316 170.69-35.645-0.18662-0.99659-0.44679-1.982-0.77153-2.9318-1.3821-4.0424-3.8185-8.0259-7.0673-12.345-6.4977-8.6375-16.418-18.509-28.886-29.349-24.936-21.681-60.016-47.066-96.905-70.858s-75.534-45.942-107.58-61.013c-16.024-7.5355-30.383-13.309-42.28-16.634-5.9487-1.6626-11.273-2.9158-16.079-3.2404-1.2015-0.0812-2.3806-0.10535-3.5182-0.0617z" color="#000000" fill="url(#f)"/>
   <path d="m309.78 684.22c-10.281 2.0363-20.701 3.8157-31.219 5.2812-32.364 4.5098-63.671 5.9442-93.406 4.625-6.1413 5.2804-11.94 10.283-16.781 14.625-6.6402 5.9554-11.822 10.87-15.25 15.219-1.714 2.1744-3.0857 4.1378-3.8125 6.9062-0.36342 1.3842-0.54499 3.1237 0.0312 4.9688 0.57629 1.8451 1.9708 3.481 3.4062 4.4062 3.8558 2.4852 8.0591 2.668 12.812 2.3438 4.7534-0.32422 10.221-1.404 16.5-3.0938 12.558-3.3796 28.351-9.2229 46.438-16.875 23.991-10.15 52.022-23.512 81.281-38.406z" color="#000000" fill="url(#g)"/>
  </g>
 </g>
</svg>
